# xmcd
#
# Track frame offsets: 
#        150
#        17298
#        33400
#        49041
#        62821
#        79919
#        94767
#        114764
#        130737
#        147133
#        162426
#        173108
#        188797
#        201918
#
# Disc length: 2955 seconds
#
# Revision: 0
# Processed by: cddbd v1.5.1PL2 Copyright (c) Steve Scherf et al.
# Submitted via: ExactAudioCopy v0.95a3
#
DISCID=b20b890e
DTITLE=Dinastia Hidalguense - Dinastia Hidalguense: Sones huastecos
DYEAR=1996
DGENRE=Country
TTITLE0=El Fandanginto (sp?)
TTITLE1=El Apasionado
TTITLE2=La Rosa
TTITLE3=El Huauchinanguense
TTITLE4=El Tepetzintleco
TTITLE5=El Cuervo
TTITLE6=El Huerfanito
TTITLE7=La Liebre
TTITLE8=La Malaguena
TTITLE9=El Gavilan
TTITLE10=La Sirena
TTITLE11=El Bejuquito
TTITLE12=La Llorona
TTITLE13=El Caiman
EXTD=
EXTT0=
EXTT1=
EXTT2=
EXTT3=
EXTT4=
EXTT5=
EXTT6=
EXTT7=
EXTT8=
EXTT9=
EXTT10=
EXTT11=
EXTT12=
EXTT13=
PLAYORDER=
